HIERARCHY
ROOT joint_Root
{
	OFFSET 0.0 0.0 0.0
	CHANNELS 6 Xposition Yposition Zposition Zrotation Xrotation Yrotation 
	JOINT Hips
	{
		OFFSET -17.1583 93.1646 452.98
		CHANNELS 6 Xposition Yposition Zposition Zrotation Xrotation Yrotation 
		JOINT Spine
		{
			OFFSET 15.7357 0.0 0.0
			CHANNELS 6 Xposition Yposition Zposition Zrotation Xrotation Yrotation 
			JOINT Chest
			{
				OFFSET 8.98455 -0.406207 0.0
				CHANNELS 6 Xposition Yposition Zposition Zrotation Xrotation Yrotation 
				JOINT Neck
				{
					OFFSET 16.3773 0.0 0.0
					CHANNELS 6 Xposition Yposition Zposition Zrotation Xrotation Yrotation 
					JOINT Head
					{
						OFFSET 6.45672 0.0 0.0
						CHANNELS 6 Xposition Yposition Zposition Zrotation Xrotation Yrotation 
						End Site
						{
							OFFSET 0.0 0.0 0.0
						}
					}
				}
				JOINT Shoulder_L
				{
					OFFSET 12.9942 -0.242716 4.98039
					CHANNELS 6 Xposition Yposition Zposition Zrotation Xrotation Yrotation 
					JOINT UpperArm_L
					{
						OFFSET 5.34809 0.0 0.0
						CHANNELS 6 Xposition Yposition Zposition Zrotation Xrotation Yrotation 
						JOINT LowerArm_L
						{
							OFFSET 24.3286 1.87007e-05 0.0
							CHANNELS 6 Xposition Yposition Zposition Zrotation Xrotation Yrotation 
							JOINT Hand_L
							{
								OFFSET 22.2916 0.0 0.0
								CHANNELS 6 Xposition Yposition Zposition Zrotation Xrotation Yrotation 
								End Site
								{
									OFFSET 0.0 0.0 0.0
								}
							}
						}
					}
				}
				JOINT Shoulder_R
				{
					OFFSET 12.9945 -0.242716 -4.98039
					CHANNELS 6 Xposition Yposition Zposition Zrotation Xrotation Yrotation 
					JOINT UpperArm_R
					{
						OFFSET -5.34813 0.0 0.0
						CHANNELS 6 Xposition Yposition Zposition Zrotation Xrotation Yrotation 
						JOINT LowerArm_R
						{
							OFFSET -24.3289 0.000322201 0.0
							CHANNELS 6 Xposition Yposition Zposition Zrotation Xrotation Yrotation 
							JOINT Hand_R
							{
								OFFSET -22.2915 -0.000108084 0.0
								CHANNELS 6 Xposition Yposition Zposition Zrotation Xrotation Yrotation 
								End Site
								{
									OFFSET 0.0 0.0 0.0
								}
							}
						}
					}
				}
			}
		}
		JOINT UpperLeg_L
		{
			OFFSET -2.19248 -6.46944 0.0
			CHANNELS 6 Xposition Yposition Zposition Zrotation Xrotation Yrotation 
			JOINT LowerLeg_L
			{
				OFFSET 39.0811 0.0 -1.23785e-05
				CHANNELS 6 Xposition Yposition Zposition Zrotation Xrotation Yrotation 
				JOINT Foot_L
				{
					OFFSET 40.9854 0.0 -1.26872e-05
					CHANNELS 6 Xposition Yposition Zposition Zrotation Xrotation Yrotation 
					JOINT Toes_L
					{
						OFFSET 11.7543 0.0 0.0
						CHANNELS 6 Xposition Yposition Zposition Zrotation Xrotation Yrotation 
						End Site
						{
							OFFSET 0.0 0.0 0.0
						}
					}
				}
			}
		}
		JOINT UpperLeg_R
		{
			OFFSET -2.19251 6.46944 0.0
			CHANNELS 6 Xposition Yposition Zposition Zrotation Xrotation Yrotation 
			JOINT LowerLeg_R
			{
				OFFSET -39.0811 -0.00228153 -0.0401928
				CHANNELS 6 Xposition Yposition Zposition Zrotation Xrotation Yrotation 
				JOINT Foot_R
				{
					OFFSET -40.9854 0.0 0.0
					CHANNELS 6 Xposition Yposition Zposition Zrotation Xrotation Yrotation 
					JOINT Toes_R
					{
						OFFSET -11.7543 0.0 0.0
						CHANNELS 6 Xposition Yposition Zposition Zrotation Xrotation Yrotation 
						End Site
						{
							OFFSET 0.0 0.0 0.0
						}
					}
				}
			}
		}
	}
}
MOTION
Frames:	7
Frame Time:	0.0333333
0.000000 0.000000 0.000000 0.000000 0.000000 -0.000000 -2.176490 88.860900 -20.934000 86.756200 6.505570 -3.277850 15.735700 0.000005 -0.000001 22.144700 85.711000 -19.542800 8.984550 -0.406207 -0.000000 -4.363390 -8.213940 4.900430 16.377300 -0.000001 -0.000001 2.656350 2.420790 -3.333160 6.456720 -0.000001 -0.000000 2.902440 4.991210 -3.300130 12.994200 -0.242716 4.980390 -92.541400 7.950880 -72.209900 5.348090 -0.000007 -0.000001 -72.108900 -5.043130 -0.685795 24.328600 0.000019 0.000005 33.088600 27.073700 -55.066200 22.291600 -0.000001 0.000005 52.250700 4.274060 20.190000 12.994500 -0.242716 -4.980390 88.691500 3.391590 -68.888000 -5.348130 -0.000001 -0.000004 -62.021900 -9.010520 10.774400 -24.328900 0.000322 -0.000009 -0.072275 -0.556468 -7.298280 -22.291500 -0.000108 -0.000004 51.022200 5.372370 -2.059890 -2.192480 -6.469440 -0.000000 -171.900000 -3.142830 7.572930 39.081100 -0.000007 -0.000012 0.045608 -0.075021 31.296500 40.985400 -0.000006 -0.000013 -2.823480 21.385900 -55.739900 11.754300 -0.000000 0.000003 -0.136600 -0.527575 -38.810300 -2.192510 6.469440 -0.000001 -173.146000 -0.144641 146.580000 -39.081100 -0.002282 -0.040193 0.061185 -0.105956 28.646100 -40.985400 0.000008 0.000006 0.307822 -8.936950 -59.323400 -11.754300 -0.000006 -0.000006 -0.003158 0.210043 -8.050140
0.000000 0.000000 0.000000 0.000000 0.000000 -0.000000 -2.609140 88.540100 -15.197200 85.727400 5.342970 -1.849240 15.735700 0.000005 -0.000001 29.774400 86.064500 -26.814600 8.984550 -0.406207 -0.000000 -3.680070 -7.123220 5.698650 16.377300 -0.000001 -0.000001 2.536540 2.534150 -3.350930 6.456720 -0.000001 -0.000000 2.549840 4.646280 -3.837110 12.994200 -0.242716 4.980390 -92.474300 7.667240 -72.054400 5.348090 -0.000007 -0.000001 -72.813100 -6.640690 1.741080 24.328600 0.000019 0.000005 27.596000 28.264900 -47.822700 22.291600 -0.000001 0.000005 50.559200 4.363060 18.807200 12.994500 -0.242716 -4.980390 88.781200 3.237550 -69.358000 -5.348130 -0.000001 -0.000004 -64.950000 -6.001780 7.563850 -24.328900 0.000322 -0.000009 -0.145756 -1.025610 -8.031060 -22.291500 -0.000108 -0.000004 50.727600 5.383160 -2.398560 -2.192480 -6.469440 -0.000000 -170.619000 -2.847000 4.597240 39.081100 -0.000007 -0.000012 0.105336 -0.120201 41.228500 40.985400 -0.000006 -0.000013 -6.283830 19.306800 -43.790200 11.754300 -0.000000 0.000003 -0.089997 -0.419042 -34.020300 -2.192510 6.469440 -0.000001 -171.407000 -1.537750 148.493000 -39.081100 -0.002282 -0.040193 0.094851 -0.131561 34.836000 -40.985400 0.000008 0.000006 0.883683 -9.281300 -63.660300 -11.754300 -0.000006 -0.000006 -0.007348 0.250291 -6.409630
0.000000 0.000000 0.000000 0.000000 0.000000 -0.000000 -3.033680 88.132300 -9.953130 84.973300 5.389490 0.445980 15.735700 0.000005 -0.000001 39.975000 85.904500 -36.754400 8.984550 -0.406207 -0.000000 -2.316860 -6.558210 6.313720 16.377300 -0.000001 -0.000001 2.275070 2.415420 -3.175400 6.456720 -0.000001 -0.000000 2.630100 4.116460 -4.383460 12.994200 -0.242716 4.980390 -92.620300 8.080710 -71.966700 5.348090 -0.000007 -0.000001 -71.964000 -7.031910 3.582390 24.328600 0.000019 0.000005 22.258300 28.878200 -40.279400 22.291600 -0.000001 0.000005 50.000300 4.401370 18.201400 12.994500 -0.242716 -4.980390 88.712800 3.542380 -70.015600 -5.348130 -0.000001 -0.000004 -66.843600 -2.646500 4.417610 -24.328900 0.000322 -0.000009 -0.283585 -1.593800 -10.054900 -22.291500 -0.000108 -0.000004 49.831200 5.399800 -2.931540 -2.192480 -6.469440 -0.000000 -169.709000 -0.395018 -0.913524 39.081100 -0.000007 -0.000012 0.223737 -0.167533 53.173900 40.985400 -0.000006 -0.000013 -13.437600 14.431100 -29.793900 11.754300 -0.000000 0.000003 0.002363 0.065059 -13.938000 -2.192510 6.469440 -0.000001 -169.688000 -0.721193 152.079000 -39.081100 -0.002282 -0.040193 0.174942 -0.208002 39.532800 -40.985400 0.000008 0.000006 1.595560 -9.100590 -69.299300 -11.754300 -0.000006 -0.000006 -0.009455 0.267184 -5.719500
0.000000 0.000000 0.000000 0.000000 0.000000 -0.000000 -3.489260 88.182400 -5.295550 83.809600 6.314570 1.592270 15.735700 0.000005 -0.000001 46.453200 85.963300 -42.839100 8.984550 -0.406207 -0.000000 -1.721820 -5.859690 7.143510 16.377300 -0.000001 -0.000001 2.051220 1.781420 -2.779510 6.456720 -0.000001 -0.000000 2.904680 3.063900 -4.621640 12.994200 -0.242716 4.980390 -92.631000 8.238670 -72.220400 5.348090 -0.000007 -0.000001 -71.015200 -7.220760 4.788600 24.328600 0.000019 0.000005 18.766500 30.513800 -33.789300 22.291600 -0.000001 0.000005 49.443300 4.423620 17.843800 12.994500 -0.242716 -4.980390 88.577600 3.977070 -70.301800 -5.348130 -0.000001 -0.000004 -67.624600 0.643766 1.896690 -24.328900 0.000322 -0.000009 -0.498411 -1.987600 -14.048300 -22.291500 -0.000108 -0.000004 49.588000 5.417570 -3.516540 -2.192480 -6.469440 -0.000000 -168.469000 2.135030 -7.761890 39.081100 -0.000007 -0.000012 0.290771 -0.142512 63.889100 40.985400 -0.000006 -0.000013 -14.710100 11.682000 -30.005300 11.754300 -0.000000 0.000003 0.002381 0.066460 -13.881200 -2.192510 6.469440 -0.000001 -167.831000 2.124940 155.953000 -39.081100 -0.002282 -0.040193 0.177903 -0.204789 40.454800 -40.985400 0.000008 0.000006 1.547350 -7.551470 -72.941100 -11.754300 -0.000006 -0.000006 -0.010025 0.271495 -5.543240
0.000000 0.000000 0.000000 0.000000 0.000000 -0.000000 -3.615030 88.696900 -0.842013 83.939700 6.536820 2.788050 15.735700 0.000005 -0.000001 55.925000 86.049100 -52.434300 8.984550 -0.406207 -0.000000 -1.068610 -4.695100 6.937940 16.377300 -0.000001 -0.000001 2.055590 1.280540 -2.128760 6.456720 -0.000001 -0.000000 3.058070 1.940130 -4.684230 12.994200 -0.242716 4.980390 -92.471200 7.751830 -72.257500 5.348090 -0.000007 -0.000001 -69.972700 -8.209530 6.144650 24.328600 0.000019 0.000005 15.598700 30.338100 -28.930000 22.291600 -0.000001 0.000005 47.949200 4.448820 17.438100 12.994500 -0.242716 -4.980390 88.534800 4.120950 -70.407800 -5.348130 -0.000001 -0.000004 -68.030200 2.876120 -0.206925 -24.328900 0.000322 -0.000009 -0.514278 -1.456570 -19.416800 -22.291500 -0.000108 -0.000004 49.716700 5.434800 -4.104630 -2.192480 -6.469440 -0.000000 -169.040000 3.229240 -13.548100 39.081100 -0.000007 -0.000012 0.191990 -0.066175 70.980500 40.985400 -0.000006 -0.000013 -10.508000 13.383500 -35.465500 11.754300 -0.000000 0.000003 0.002359 0.064769 -13.949800 -2.192510 6.469440 -0.000001 -167.987000 4.014360 161.125000 -39.081100 -0.002282 -0.040193 0.083601 -0.098659 39.149900 -40.985400 0.000008 0.000006 0.314556 -5.874410 -75.221300 -11.754300 -0.000006 -0.000006 -0.010284 0.273416 -5.464650
0.000000 0.000000 0.000000 0.000000 0.000000 -0.000000 -3.415470 89.615200 3.438480 85.319800 6.027670 3.426700 15.735700 0.000005 -0.000001 64.046200 86.092300 -61.162400 8.984550 -0.406207 -0.000000 -0.640567 -3.631040 5.746150 16.377300 -0.000001 -0.000001 2.154320 1.143450 -1.549600 6.456720 -0.000001 -0.000000 3.170470 1.353310 -4.310780 12.994200 -0.242716 4.980390 -92.292200 7.102880 -72.062600 5.348090 -0.000007 -0.000001 -68.112600 -10.730500 8.106460 24.328600 0.000019 0.000005 13.538400 29.399000 -26.128400 22.291600 -0.000001 0.000005 47.394000 4.461030 17.239800 12.994500 -0.242716 -4.980390 88.545700 4.130470 -70.583700 -5.348130 -0.000001 -0.000004 -68.187900 4.685960 -2.234550 -24.328900 0.000322 -0.000009 -0.418805 -0.879921 -25.400000 -22.291500 -0.000108 -0.000004 49.878000 5.440340 -4.297900 -2.192480 -6.469440 -0.000000 -171.122000 3.645760 -18.323500 39.081100 -0.000007 -0.000012 0.147506 -0.043679 73.502900 40.985400 -0.000006 -0.000013 -8.828970 11.753400 -40.342600 11.754300 -0.000000 0.000003 0.002311 0.061494 -14.082600 -2.192510 6.469440 -0.000001 -169.744000 4.661590 166.856000 -39.081100 -0.002282 -0.040193 0.008203 -0.006812 35.808200 -40.985400 0.000008 0.000006 -0.927418 -4.450450 -76.099600 -11.754300 -0.000006 -0.000006 -0.009718 0.269182 -5.637800
0.000000 0.000000 0.000000 0.000000 0.000000 -0.000000 -3.011540 90.742300 7.445750 87.390600 4.761780 3.215180 15.735700 0.000005 -0.000001 70.917600 86.278100 -68.879400 8.984550 -0.406207 -0.000000 -0.681966 -2.583240 4.059540 16.377300 -0.000001 -0.000001 2.301770 1.255280 -1.200750 6.456720 -0.000001 -0.000000 3.248300 1.230180 -3.949150 12.994200 -0.242716 4.980390 -92.150200 6.498490 -71.647200 5.348090 -0.000007 -0.000001 -65.498400 -13.206300 10.499100 24.328600 0.000019 0.000005 12.430000 28.002200 -25.147900 22.291600 -0.000001 0.000005 47.230000 4.443210 17.529000 12.994500 -0.242716 -4.980390 88.704600 3.741210 -70.885900 -5.348130 -0.000001 -0.000004 -68.572800 6.002440 -4.168170 -24.328900 0.000322 -0.000009 -0.117898 -0.192657 -31.301200 -22.291500 -0.000108 -0.000004 50.283400 5.446480 -4.514590 -2.192480 -6.469440 -0.000000 -174.157000 3.235770 -22.414200 39.081100 -0.000007 -0.000012 0.094259 -0.030791 71.906300 40.985400 -0.000006 -0.000013 -6.507560 9.047150 -45.603500 11.754300 -0.000000 0.000003 0.002242 0.057470 -14.245700 -2.192510 6.469440 -0.000001 -172.262000 4.413420 172.291000 -39.081100 -0.002282 -0.040193 -0.000973 0.007111 31.001800 -40.985400 0.000008 0.000006 -1.311680 -3.128020 -75.641400 -11.754300 -0.000006 -0.000006 -0.008929 0.263122 -5.885540
